<svg width="937" height="706" viewBox="0 0 937 706" fill="none" xmlns="http://www.w3.org/2000/svg">
<g clip-path="url(#clip0)">
<path opacity="0.18" d="M746.94 77.3606C738.946 63.1666 728.7 50.3637 716.603 39.4511C688.036 14.1782 649.332 2.70426 611.234 0.454964C573.136 -1.79433 535.114 4.39754 497.471 10.5641C476.438 14.1782 455.025 17.6659 436.116 27.6487C405.551 43.8739 386.717 74.252 372.257 104.554C357.796 134.857 348.645 168.47 314.794 182.9C293.483 192.024 268.253 195.006 246.057 202.714C203.08 217.676 161.341 238.097 126.277 267.54C92.2497 296.098 72.8848 355.06 62.1659 397.038C51.4469 439.017 49.7531 484.432 63.1771 525.93C84.792 592.676 143.569 642.413 208.667 668.596C273.764 694.779 345.182 700.389 415.259 702.639C475.932 704.585 539.285 708.477 599.807 703.827C623.621 702.007 645.615 699.859 669.961 699.581C698.863 699.647 727.623 695.553 755.358 687.424C799.675 673.802 840.781 646.002 863.256 605.565C893.592 550.723 885.73 482.233 865.126 422.993C844.523 363.754 812.442 308.684 795.453 248.307C785.215 211.863 780.639 174.03 770.779 137.46C765.446 116.487 757.434 96.2874 746.94 77.3606V77.3606Z" fill="#418DF9"/>
<path opacity="0.18" d="M330.696 632.329C322.353 635.943 313.556 644.208 316.893 652.674C353.499 665.993 393.417 665.993 432.374 665.816C526.797 665.386 621.22 664.982 715.516 664.123C723.378 664.123 731.595 663.895 738.496 660.13C745.398 656.364 750.353 647.771 747.344 640.518C744.513 633.745 736.474 631.066 729.319 629.347C705.703 623.656 681.669 619.87 657.447 618.025C637.778 616.509 615.557 615.169 602.79 600.132C597.962 594.445 595.08 587.293 590.15 581.733C560.648 548.499 491.252 563.309 466.073 591.615C427.722 634.831 378.476 611.58 330.696 632.329Z" fill="#418DF9"/>
<path d="M422.995 374.09C417.383 390.139 412.529 406.743 412.428 423.752C412.327 440.76 417.484 458.376 429.492 470.406C447.062 488.097 474.416 490.043 499.266 491.028L532.131 492.343C545.049 492.848 558.094 493.353 570.76 490.776C583.425 488.198 595.813 482.107 603.624 471.745C608.649 464.394 612.014 456.037 613.484 447.256C622.383 404.064 607.947 358.042 580.821 323.266C572.935 312.704 563.309 303.56 552.356 296.224C534.103 284.624 479.775 267.236 461.927 286.671C453.812 295.491 448.68 313.359 443.548 324.176C435.815 340.438 428.955 357.099 422.995 374.09V374.09Z" fill="white"/>
<path d="M439.857 364.891C435.307 377.881 431.388 391.301 431.312 405.075C431.236 418.849 435.408 433.077 445.115 442.807C459.323 457.036 481.469 458.679 501.542 459.488L528.162 460.549C538.583 461.374 549.066 460.941 559.384 459.26C569.622 457.162 579.608 452.26 585.878 443.869C589.96 437.938 592.687 431.182 593.866 424.08C601.071 389.128 589.392 351.926 567.448 323.797C561.072 315.245 553.284 307.844 544.417 301.911C529.654 292.534 485.716 278.483 471.281 294.177C464.733 301.329 460.562 315.786 456.441 324.505C450.198 337.662 444.662 351.143 439.857 364.891V364.891Z" fill="url(#paint0_linear)"/>
<path d="M471.635 595.279C469.107 599.677 466.301 603.897 463.899 608.32C460.233 615.194 457.705 623.307 460.132 630.687C460.471 631.971 461.163 633.135 462.129 634.048C463.42 634.957 464.929 635.507 466.503 635.64C471.613 636.44 476.776 636.863 481.949 636.904C489.028 636.904 496.662 636.07 501.921 631.318C512.463 621.74 511.755 598.16 505.713 586.585C505.128 585.112 504.119 583.846 502.814 582.946C501.509 582.046 499.967 581.554 498.381 581.531C493.604 580.602 488.72 580.338 483.87 580.747C478.435 581.354 476.994 582.668 475.098 587.849C474.142 590.413 472.984 592.898 471.635 595.279Z" fill="#418DF9"/>
<path d="M485.514 596.29C486.783 596.516 488.068 596.643 489.356 596.669C493.3 596.846 497.775 596.821 500.581 594.016C503.387 591.21 503.438 587.091 503.438 583.275V568.465C503.438 558.684 494.286 560.023 487.106 561.236C485.438 561.434 483.842 562.032 482.455 562.98C479.927 564.977 479.649 568.616 479.548 571.801L479.042 587.394C478.82 589.261 479.099 591.154 479.851 592.878C480.476 593.837 481.31 594.643 482.291 595.234C483.272 595.824 484.373 596.186 485.514 596.29Z" fill="#FDBAAC"/>
<path d="M564.136 595.279C566.664 599.677 569.47 603.897 571.72 608.32C575.411 615.194 577.939 623.307 575.487 630.687C575.148 631.971 574.456 633.135 573.49 634.048C572.203 634.965 570.692 635.515 569.116 635.64C564.014 636.439 558.86 636.862 553.695 636.904C546.617 636.904 538.957 636.07 533.724 631.318C523.156 621.74 523.864 598.16 529.906 586.585C530.414 585.49 531.116 584.497 531.979 583.654C533.503 582.483 535.325 581.765 537.238 581.581C542.024 580.652 546.916 580.388 551.774 580.798C557.184 581.404 558.625 582.718 560.521 587.899C561.518 590.456 562.727 592.924 564.136 595.279Z" fill="#418DF9"/>
<path d="M550.257 596.29C548.988 596.515 547.703 596.642 546.415 596.669C542.446 596.846 537.996 596.821 535.19 594.016C532.384 591.21 532.308 587.091 532.308 583.275V568.465C532.308 558.684 541.485 560.023 548.639 561.236C550.317 561.429 551.922 562.028 553.316 562.98C555.844 564.977 556.097 568.616 556.198 571.801L556.704 587.394C556.934 589.259 556.664 591.152 555.92 592.878C555.295 593.837 554.461 594.643 553.48 595.234C552.499 595.824 551.398 596.186 550.257 596.29Z" fill="#FDBAAC"/>
<path d="M543.28 212.596C543.28 212.596 574.122 225.94 577.737 228.973C580.973 231.677 572.201 416.776 571.518 425.824C570.836 434.872 521.488 436.312 500.151 432.243C485.915 429.344 471.983 425.113 458.54 419.607C458.54 419.607 451.79 228.417 456.011 225.005C460.233 221.593 501.011 208.982 501.011 208.982L543.28 212.596Z" fill="#418DF9"/>
<path d="M441.829 440.887C439.529 449.328 438.138 458.83 442.537 466.362C445.468 470.974 449.854 474.478 455 476.319C460.116 478.121 465.444 479.251 470.851 479.681C503.978 483.459 537.504 481.639 570.027 474.297C574.564 473.679 578.823 471.756 582.288 468.763C585.162 465.253 586.829 460.91 587.04 456.379C588.968 440.319 585.642 424.067 577.56 410.054C576.999 408.906 576.122 407.941 575.032 407.274C573.984 406.81 572.837 406.619 571.695 406.718L487.536 406.996C481.427 407.148 475.314 406.92 469.233 406.313C464.506 405.757 459.121 402.75 455.733 406.793C448.528 415.235 444.66 430.373 441.829 440.887Z" fill="#473F47"/>
<path d="M441.829 440.887C439.529 449.328 438.138 458.83 442.537 466.362C445.468 470.974 449.854 474.478 455 476.319C460.116 478.121 465.444 479.251 470.851 479.681C503.978 483.459 537.504 481.639 570.027 474.297C574.564 473.679 578.823 471.756 582.288 468.763C585.162 465.253 586.829 460.91 587.04 456.379C588.968 440.319 585.642 424.067 577.56 410.054C576.999 408.906 576.122 407.941 575.032 407.274C573.984 406.81 572.837 406.619 571.695 406.718L487.536 406.996C481.427 407.148 475.314 406.92 469.233 406.313C464.506 405.757 459.121 402.75 455.733 406.793C448.528 415.235 444.66 430.373 441.829 440.887Z" fill="url(#paint1_linear)"/>
<path d="M542.117 573.974L547.047 574.454C561.962 575.945 567.979 563.233 569.47 548.322C569.824 545.213 570.557 542.08 571.088 538.996L580.922 481.728L585.473 455.191C585.928 452.512 586.408 449.859 586.838 447.18C588.153 439.396 585.802 431.89 584.31 424.08C583.425 419.354 582.288 414.274 578.647 411.14C575.007 408.007 569.976 407.729 565.274 407.501C552.785 406.945 540.12 406.364 527.96 409.27C527.212 409.366 526.522 409.724 526.013 410.281C525.672 410.924 525.557 411.662 525.684 412.379C526.569 424.257 528.465 436.034 528.213 447.913L526.064 543.343C524.547 558.178 527.201 572.483 542.117 573.974Z" fill="#473F47"/>
<path d="M495.474 577.765L490.418 578.245C475.528 579.736 469.486 567.024 467.995 552.113L451.941 458.603C450.652 451.173 449.565 444.02 449.009 436.464C448.392 431.355 448.562 426.181 449.514 421.123C450.007 418.598 451.069 416.217 452.62 414.164C454.171 412.11 456.169 410.436 458.464 409.27C460.888 408.349 463.454 407.853 466.048 407.804C474.586 407.247 483.16 407.653 491.607 409.017C494.641 409.275 497.558 410.311 500.076 412.025C502.565 414.445 504.318 417.521 505.132 420.896C507.66 428.174 510.921 436.211 510.188 443.995C509.584 448.968 509.297 453.973 509.328 458.982L510.061 492.09L511.3 546.25C511.275 546.552 511.275 546.857 511.3 547.159C512.943 561.894 510.289 576.198 495.474 577.765Z" fill="#473F47"/>
<path d="M754.903 382.607V388.066C754.907 389.114 754.703 390.152 754.304 391.12C753.906 392.089 753.32 392.97 752.58 393.712C751.84 394.454 750.961 395.042 749.993 395.444C749.025 395.846 747.988 396.052 746.94 396.052H280.286C279.239 396.052 278.201 395.846 277.233 395.444C276.265 395.042 275.386 394.454 274.646 393.712C273.907 392.97 273.321 392.089 272.922 391.12C272.523 390.152 272.32 389.114 272.323 388.066V382.607C272.323 380.496 273.162 378.471 274.655 376.978C276.149 375.485 278.174 374.646 280.286 374.646H746.94C749.052 374.646 751.077 375.485 752.571 376.978C754.064 378.471 754.903 380.496 754.903 382.607V382.607Z" fill="#473F47"/>
<path d="M609.742 290.032C609.742 290.032 629.764 331.733 627.616 343.106C626.124 351.117 610.779 358.143 604.711 361.782C598.644 365.422 592.552 369.895 586.257 372.372C579.962 374.849 572.782 373.888 566.386 373.686L533.521 372.625C531.954 372.625 529.856 372.043 529.856 370.451C529.856 369.516 530.665 368.783 531.449 368.252C533.907 366.539 536.76 365.478 539.741 365.169C546.841 364.72 553.857 363.378 560.622 361.176L598.442 335.145L589.316 318.237L609.742 290.032Z" fill="#FDBAAC"/>
<path d="M457.806 224.095C451.233 226.951 446.733 230.894 445.166 237.642C442.638 248.079 437.455 256.824 432.526 266.301C429.584 272.056 427.05 278.009 424.942 284.119C424.123 285.975 423.826 288.02 424.082 290.032C424.519 291.554 425.258 292.973 426.256 294.203C432.104 302.357 438.189 310.335 444.509 318.136C448.323 316.372 451.97 314.265 455.405 311.843C456.744 309.72 456.214 304.615 456.416 302.138C456.787 297.084 457.124 291.97 457.427 286.798L457.806 224.095Z" fill="#418DF9"/>
<path d="M532.03 189.396C532.275 190.596 532.436 191.812 532.51 193.035C532.839 197.938 532.333 202.967 533.8 207.643C534.366 209.327 535.13 210.939 536.075 212.444C539.589 218.005 535.241 227.078 532.157 232.132C528.238 238.526 522.044 244.769 514.182 245.527C504.297 246.411 500 235.418 498.179 227.608C497.118 223.11 496.207 219.875 497.901 215.427C499.595 210.979 502.224 206.733 503.564 202.032C504.689 196.615 505.332 191.11 505.485 185.579C505.552 184.106 505.941 182.666 506.623 181.359C507.201 180.504 507.948 179.776 508.817 179.22C509.687 178.664 510.661 178.291 511.679 178.124C513.674 177.774 515.709 177.714 517.721 177.947C520.834 177.94 523.9 178.704 526.645 180.171C528.109 181.276 529.339 182.66 530.263 184.243C531.187 185.827 531.788 187.578 532.03 189.396V189.396Z" fill="#FDBAAC"/>
<path d="M504.601 197.71C504.601 197.71 508.62 222.857 519.314 218.333C530.008 213.809 532.611 199.378 532.611 199.378L504.601 197.71Z" fill="#DEA095"/>
<path d="M536.378 212.268C536.378 212.268 526.923 241.382 516.963 245.274C516.963 245.274 514.308 247.018 522.145 250.809C529.982 254.6 548.791 230.413 544.342 214.34C543.837 212.284 542.811 210.393 541.363 208.848C539.915 207.303 538.094 206.157 536.075 205.52L536.378 212.268Z" fill="white"/>
<path d="M498.938 209.437C498.938 209.437 497.497 230.363 507.103 243.834C507.103 243.834 504.044 249.444 501.061 249.722C498.078 250 489.053 232.815 490.949 219.167C491.834 211.307 497.244 207.466 498.938 209.437Z" fill="white"/>
<path d="M490.62 141.604C490.62 141.604 491.126 180.499 495.045 190.634C498.963 200.768 508.696 208.906 517.595 208.098C526.494 207.289 539.235 198.645 543.988 184.745C548.74 170.845 548.74 137.864 546.844 133.542C544.948 129.221 534.735 115.978 511.174 120.274C494.969 123.231 490.09 135.665 490.62 141.604Z" fill="#FDBAAC"/>
<path d="M610.501 269.865C613.787 274.515 616.113 277.876 616.669 278.66C617.525 279.724 618.169 280.942 618.565 282.248C618.713 283.446 618.612 284.661 618.268 285.818C617.924 286.975 617.346 288.048 616.568 288.971C613.054 294.026 607.872 297.463 603.346 301.608C598.252 306.647 593.687 312.194 589.72 318.161C586.651 315.97 583.851 313.425 581.378 310.579C579.006 308.783 577.15 306.393 575.996 303.651C574.843 300.909 574.432 297.912 574.805 294.961L574.35 262.359L574.097 246.058C574.097 243.252 570.482 230.565 572.226 228.367C576.372 223.186 599.125 253.993 610.501 269.865Z" fill="#418DF9"/>
<path d="M485.691 156.01C485.402 155.922 485.094 155.922 484.806 156.01C484.525 156.191 484.298 156.444 484.149 156.743C483.122 158.569 482.773 160.699 483.163 162.758C483.589 164.452 484.234 166.084 485.084 167.61C485.949 170.09 487.49 172.279 489.533 173.928C489.943 174.223 490.447 174.358 490.949 174.308C491.314 174.244 491.65 174.067 491.91 173.802C493.221 172.253 493.906 170.27 493.831 168.242C494.377 165.409 493.855 162.474 492.365 160.003C491.616 158.886 490.63 157.948 489.476 157.258C488.322 156.567 487.029 156.141 485.691 156.01V156.01Z" fill="#FDBAAC"/>
<path d="M552.002 155.378C552.293 155.315 552.595 155.315 552.886 155.378C553.162 155.565 553.388 155.817 553.544 156.111C554.558 157.951 554.906 160.084 554.53 162.151C554.072 163.835 553.428 165.463 552.608 167.004C551.741 169.475 550.2 171.654 548.159 173.297C547.744 173.602 547.231 173.745 546.718 173.701C546.366 173.62 546.043 173.445 545.783 173.196C544.475 171.644 543.791 169.663 543.861 167.635C543.298 164.803 543.821 161.861 545.328 159.397C546.073 158.275 547.059 157.332 548.213 156.637C549.367 155.942 550.661 155.512 552.002 155.378V155.378Z" fill="#FDBAAC"/>
<path d="M483.946 138.016C483.137 132.961 482.96 127.123 486.474 123.408C487.208 122.624 488.092 121.993 488.851 121.234C489.609 120.476 490.772 118.935 491.758 117.772C494.698 114.59 498.275 112.062 502.255 110.351C506.236 108.64 510.532 107.784 514.865 107.84C523.508 108.013 532.058 109.663 540.145 112.717C544.696 114.2 549.212 115.809 553.695 117.545C555.438 118.093 557.047 118.997 558.423 120.198C559.397 121.276 560.052 122.602 560.315 124.03C560.579 125.459 560.44 126.932 559.914 128.286C559.156 130.434 557.589 132.253 556.957 134.427C556.578 136.144 556.425 137.902 556.502 139.658C556.342 144.33 555.114 148.904 552.912 153.028C551.696 155.652 549.665 157.815 547.122 159.194C547.323 152.88 546.469 146.576 544.594 140.543C539.236 144.864 532.718 147.502 525.861 148.125C519.034 148.712 512.158 147.93 505.637 145.825C504.046 145.139 502.29 144.928 500.581 145.218C498.938 145.673 497.623 147.746 498.559 149.11C498.237 148.906 497.878 148.767 497.503 148.702C497.127 148.638 496.743 148.648 496.371 148.732C496 148.817 495.649 148.974 495.339 149.195C495.029 149.416 494.765 149.697 494.564 150.02C493.826 151.374 493.468 152.902 493.528 154.443L493.098 164.097C487.309 157.299 485.362 146.836 483.946 138.016Z" fill="#FC682D"/>
<path d="M424.032 290.032C419.886 298.651 416.068 307.471 412.681 316.417C410.141 322.623 408.128 329.031 406.664 335.574C406.133 338.102 404.894 341.564 405.83 344.117C407.271 348.034 413.212 351.092 416.549 353.114C427.183 359.627 438.257 365.395 449.691 370.375C454.123 372.497 458.815 374.026 463.646 374.924C467.437 375.388 471.262 375.498 475.073 375.253L497.016 374.495C499.014 374.495 501.618 373.812 501.795 371.816C501.795 370.426 500.606 369.288 499.418 368.556C495.504 366.079 491.244 364.197 486.778 362.97C482.404 361.782 476.994 362.591 472.874 361.125C468.222 359.483 463.039 354.276 458.919 351.42L435.332 335.145L444.458 318.237L424.032 290.032Z" fill="#FDBAAC"/>
<path d="M576.625 365.75H453.635L442.84 282.906L585.347 284.877L576.625 365.75Z" fill="#418DF9"/>
<path d="M311.938 374.646L308.398 396.052L267.545 647.518C267.372 649.13 266.662 650.636 265.53 651.796C264.397 652.955 262.908 653.701 261.301 653.912C258.419 653.912 256.548 651.031 257.129 647.518L297.983 396.052L301.446 374.646H311.938Z" fill="#473F47"/>
<path d="M719.03 374.646L722.494 396.052L763.448 647.518C763.621 649.13 764.331 650.636 765.463 651.796C766.596 652.955 768.085 653.701 769.692 653.912C772.574 653.912 774.445 651.031 773.864 647.518L733.01 396.052L729.547 374.646H719.03Z" fill="#473F47"/>
<path d="M576.625 365.725H453.028V374.747H576.625V365.725Z" fill="#418DF9"/>
<path d="M576.625 365.725H453.028V374.747H576.625V365.725Z" fill="url(#paint2_linear)"/>
<path d="M357.367 374.646H296.314C298.537 368.327 302.668 362.853 308.136 358.981C313.604 355.109 320.14 353.03 326.84 353.03C333.541 353.03 340.077 355.109 345.545 358.981C351.013 362.853 355.144 368.327 357.367 374.646V374.646Z" fill="#418DF9"/>
<path d="M293.52 258.746C292.696 256.328 290.067 255.037 287.648 255.861C285.23 256.685 283.938 259.314 284.763 261.731L317.613 358.035C318.438 360.452 321.067 361.744 323.485 360.919C325.904 360.095 327.195 357.467 326.371 355.049L293.52 258.746Z" fill="#418DF9"/>
<path d="M287.799 255.725C285.362 256.491 284.006 259.087 284.772 261.524C285.538 263.96 288.135 265.315 290.572 264.55L387.673 234.055C390.111 233.289 391.466 230.693 390.7 228.256C389.935 225.82 387.338 224.465 384.9 225.23L287.799 255.725Z" fill="#418DF9"/>
<path d="M357.367 374.646H296.314C298.537 368.327 302.668 362.853 308.136 358.981C313.604 355.109 320.14 353.03 326.84 353.03C333.541 353.03 340.077 355.109 345.545 358.981C351.013 362.853 355.144 368.327 357.367 374.646V374.646Z" fill="url(#paint3_linear)"/>
<path d="M293.52 258.746C292.696 256.328 290.067 255.037 287.648 255.861C285.23 256.685 283.938 259.314 284.763 261.731L317.613 358.035C318.438 360.452 321.067 361.744 323.485 360.919C325.904 360.095 327.195 357.467 326.371 355.049L293.52 258.746Z" fill="url(#paint4_linear)"/>
<path d="M287.799 255.725C285.362 256.491 284.006 259.087 284.772 261.524C285.538 263.96 288.135 265.315 290.572 264.55L387.673 234.055C390.111 233.289 391.466 230.693 390.7 228.256C389.935 225.82 387.338 224.465 384.9 225.23L287.799 255.725Z" fill="url(#paint5_linear)"/>
<path d="M426.054 237.541C418.217 248.762 408.939 255.939 404.97 253.993C404.792 253.899 404.623 253.789 404.465 253.665L403.934 253.336C392.355 245.224 381.661 223.767 389.777 212.167C397.892 200.566 421.731 203.22 433.31 211.333L433.815 211.712C433.985 211.815 434.146 211.934 434.296 212.065C437.481 215.123 433.916 226.294 426.054 237.541Z" fill="#418DF9"/>
<path d="M426.054 237.54C418.217 248.762 408.939 255.939 404.97 253.993L404.616 253.791C404.554 253.765 404.501 253.721 404.464 253.664C400.95 250.859 404.464 239.512 412.504 228.063C420.543 216.614 429.972 209.386 433.815 211.711H433.992L434.295 211.964C437.481 215.123 433.916 226.294 426.054 237.54Z" fill="#418DF9"/>
<path d="M426.054 237.54C418.217 248.762 408.939 255.939 404.97 253.993L404.616 253.791C404.554 253.765 404.501 253.721 404.464 253.664C400.95 250.859 404.464 239.512 412.504 228.063C420.543 216.614 429.972 209.386 433.815 211.711H433.992L434.295 211.964C437.481 215.123 433.916 226.294 426.054 237.54Z" fill="white"/>
<path d="M686.873 290.007H672.059C668.68 290.007 665.941 292.745 665.941 296.123V369.213C665.941 372.59 668.68 375.329 672.059 375.329H686.873C690.252 375.329 692.991 372.59 692.991 369.213V296.123C692.991 292.745 690.252 290.007 686.873 290.007Z" fill="#418DF9"/>
<path d="M713.13 289.603L698.35 290.621C694.979 290.853 692.435 293.773 692.667 297.143L697.691 370.06C697.923 373.429 700.844 375.973 704.214 375.741L718.994 374.723C722.365 374.491 724.909 371.571 724.677 368.201L719.653 295.285C719.421 291.915 716.5 289.371 713.13 289.603Z" fill="#418DF9"/>
<path d="M576.751 365.75H453.762L442.967 282.906L585.473 284.877L576.751 365.75Z" fill="url(#paint6_linear)"/>
<path d="M448.352 278.811L442.967 282.905L585.473 284.877L580.569 280.075L448.352 278.811Z" fill="url(#paint7_linear)"/>
<path d="M707.957 142.464C707.215 151.677 703.302 160.349 696.884 167.004C691.121 172.685 687.021 179.834 685.028 187.677C684.472 190.078 684.168 192.555 683.738 195.259H648.346C648.093 193.465 647.916 191.67 647.562 189.926C646.072 182.343 642.47 175.335 637.172 169.708C632.488 164.94 628.801 159.287 626.326 153.078C624.224 147.237 623.429 141.005 623.998 134.822C624.567 128.64 626.486 122.657 629.621 117.297C632.755 111.937 637.027 107.33 642.136 103.801C647.246 100.272 653.068 97.906 659.191 96.8713C660.329 96.6944 661.441 96.568 662.528 96.4669C668.679 95.9549 674.868 96.7984 680.658 98.9379C686.447 101.077 691.697 104.461 696.036 108.849C700.376 113.238 703.699 118.525 705.772 124.337C707.845 130.15 708.617 136.346 708.033 142.489L707.957 142.464Z" fill="white"/>
<path d="M701.03 142.464C700.307 151.677 696.402 160.353 689.983 167.004C684.212 172.684 680.103 179.832 678.101 187.677C677.545 190.078 677.267 192.555 676.812 195.259H648.371C648.118 193.464 647.941 191.67 647.587 189.926C646.097 182.343 642.495 175.335 637.197 169.708C632.513 164.94 628.826 159.286 626.352 153.078C624.249 147.236 623.454 141.004 624.023 134.822C624.592 128.64 626.512 122.657 629.646 117.297C632.78 111.937 637.052 107.33 642.162 103.801C647.271 100.271 653.093 97.9059 659.216 96.8712C660.354 96.6943 661.466 96.5679 662.553 96.4668C668.12 96.9235 673.539 98.481 678.499 101.049C683.458 103.617 687.857 107.144 691.441 111.426C695.026 115.707 697.724 120.658 699.378 125.99C701.033 131.323 701.612 136.931 701.081 142.489L701.03 142.464Z" fill="url(#paint8_linear)"/>
<path d="M684.547 195.183H649.458C646.917 195.183 644.857 197.242 644.857 199.783V199.808C644.857 202.348 646.917 204.408 649.458 204.408H684.547C687.089 204.408 689.148 202.348 689.148 199.808V199.783C689.148 197.242 687.089 195.183 684.547 195.183Z" fill="#418DF9"/>
<path d="M681.868 202.917H650.52C648.244 202.917 646.399 204.761 646.399 207.036C646.399 209.311 648.244 211.156 650.52 211.156H681.868C684.144 211.156 685.988 209.311 685.988 207.036C685.988 204.761 684.144 202.917 681.868 202.917Z" fill="#418DF9"/>
<path d="M679.82 209.664H652.593C650.624 209.664 649.028 211.26 649.028 213.228V213.253C649.028 215.221 650.624 216.817 652.593 216.817H679.82C681.789 216.817 683.385 215.221 683.385 213.253V213.228C683.385 211.26 681.789 209.664 679.82 209.664Z" fill="#418DF9"/>
<path d="M684.547 195.183H649.458C646.917 195.183 644.857 197.242 644.857 199.783V199.808C644.857 202.348 646.917 204.408 649.458 204.408H684.547C687.089 204.408 689.148 202.348 689.148 199.808V199.783C689.148 197.242 687.089 195.183 684.547 195.183Z" fill="url(#paint9_linear)"/>
<path d="M681.868 202.917H650.52C648.244 202.917 646.399 204.761 646.399 207.036C646.399 209.311 648.244 211.156 650.52 211.156H681.868C684.144 211.156 685.988 209.311 685.988 207.036C685.988 204.761 684.144 202.917 681.868 202.917Z" fill="url(#paint10_linear)"/>
<path d="M679.82 209.664H652.593C650.624 209.664 649.028 211.26 649.028 213.228V213.253C649.028 215.221 650.624 216.817 652.593 216.817H679.82C681.789 216.817 683.385 215.221 683.385 213.253V213.228C683.385 211.26 681.789 209.664 679.82 209.664Z" fill="url(#paint11_linear)"/>
<path d="M657.27 195.057C656.998 188.592 656.152 182.164 654.742 175.849C653.661 170.607 652.876 165.308 652.39 159.978C651.834 151.916 653.427 146.28 657.27 142.742C657.934 142.036 658.833 141.596 659.798 141.503C660.317 141.499 660.833 141.597 661.314 141.792C661.796 141.987 662.234 142.276 662.604 142.641C662.73 142.489 662.831 142.337 662.958 142.211C663.609 141.386 664.488 140.771 665.486 140.442C665.992 140.295 666.523 140.255 667.045 140.325C667.568 140.394 668.07 140.572 668.52 140.846C669.171 141.227 669.731 141.744 670.163 142.363C670.693 142.023 671.286 141.792 671.907 141.684C672.527 141.575 673.163 141.591 673.778 141.731C676.078 142.312 677.671 144.486 678.354 147.998C679.997 156.44 678.202 164.957 676.458 173.271C674.626 180.21 673.834 187.381 674.106 194.551L671.578 194.779C671.274 187.362 672.083 179.942 673.98 172.766C675.75 164.401 677.418 156.515 675.876 148.58C675.598 147.164 674.89 144.713 673.171 144.283C672.554 144.171 671.918 144.308 671.401 144.662C671.579 145.106 671.723 145.562 671.831 146.027C672.433 148.509 672.73 151.055 672.716 153.609C672.739 154.01 672.677 154.411 672.533 154.786C672.389 155.16 672.167 155.5 671.882 155.783C671.622 156.016 671.305 156.177 670.963 156.248C670.621 156.319 670.266 156.298 669.935 156.187C669.371 155.94 668.874 155.561 668.486 155.081C668.099 154.602 667.833 154.036 667.711 153.432C666.92 151.079 666.771 148.558 667.281 146.128C667.493 145.391 667.836 144.698 668.292 144.081C668.025 143.65 667.662 143.286 667.23 143.02C667.078 142.922 666.907 142.858 666.728 142.832C666.55 142.805 666.367 142.818 666.194 142.868C665.675 143.061 665.226 143.404 664.904 143.854C664.702 144.081 664.55 144.309 664.373 144.536C666.456 147.363 667.363 150.887 666.902 154.367C666.649 156.111 665.612 157.779 663.792 157.779C663.164 157.711 662.57 157.462 662.08 157.063C661.591 156.664 661.229 156.131 661.036 155.53C660.279 153.84 659.902 152.004 659.932 150.152C659.963 148.301 660.4 146.478 661.213 144.814H661.087C660.48 144.233 660.101 144.106 659.949 144.132C659.601 144.231 659.287 144.423 659.039 144.688C655.829 147.645 654.463 152.775 654.969 159.852C655.456 165.078 656.224 170.275 657.27 175.42C658.699 181.885 659.545 188.466 659.798 195.082L657.27 195.057ZM663.034 147.038C662.221 149.436 662.339 152.052 663.362 154.367C663.485 154.668 663.675 154.936 663.918 155.151C664.214 154.812 664.392 154.386 664.424 153.938C664.688 151.579 664.192 149.197 663.008 147.139L663.034 147.038ZM669.531 147.291C669.353 149.123 669.55 150.972 670.112 152.725V152.725C670.076 150.932 669.873 149.147 669.505 147.392L669.531 147.291Z" fill="#418DF9"/>
</g>
<defs>
<linearGradient id="paint0_linear" x1="518.606" y1="512.51" x2="501.527" y2="138.925" gradientUnits="userSpaceOnUse">
<stop offset="0.01"/>
<stop offset="0.08" stop-opacity="0.69"/>
<stop offset="0.21" stop-opacity="0.32"/>
<stop offset="1" stop-opacity="0"/>
</linearGradient>
<linearGradient id="paint1_linear" x1="41715.4" y1="21971.1" x2="41550" y2="15840.2" gradientUnits="userSpaceOnUse">
<stop offset="0.01"/>
<stop offset="0.08" stop-opacity="0.69"/>
<stop offset="0.21" stop-opacity="0.32"/>
<stop offset="1" stop-opacity="0"/>
</linearGradient>
<linearGradient id="paint2_linear" x1="23031.6" y1="1589.89" x2="23031.2" y2="1877.13" gradientUnits="userSpaceOnUse">
<stop offset="0.01"/>
<stop offset="0.08" stop-opacity="0.69"/>
<stop offset="0.21" stop-opacity="0.32"/>
<stop offset="1" stop-opacity="0"/>
</linearGradient>
<linearGradient id="paint3_linear" x1="12031.8" y1="5310.84" x2="13506.2" y2="5310.84" gradientUnits="userSpaceOnUse">
<stop offset="0.01"/>
<stop offset="0.08" stop-opacity="0.69"/>
<stop offset="0.21" stop-opacity="0.32"/>
<stop offset="1" stop-opacity="0"/>
</linearGradient>
<linearGradient id="paint4_linear" x1="2036.39" y1="23276.2" x2="2190.54" y2="23276.2" gradientUnits="userSpaceOnUse">
<stop offset="0.01"/>
<stop offset="0.08" stop-opacity="0.69"/>
<stop offset="0.21" stop-opacity="0.32"/>
<stop offset="1" stop-opacity="0"/>
</linearGradient>
<linearGradient id="paint5_linear" x1="2068.54" y1="20422.2" x2="2457.8" y2="20422.2" gradientUnits="userSpaceOnUse">
<stop offset="0.01"/>
<stop offset="0.08" stop-opacity="0.69"/>
<stop offset="0.21" stop-opacity="0.32"/>
<stop offset="1" stop-opacity="0"/>
</linearGradient>
<linearGradient id="paint6_linear" x1="25374.5" y1="8730.59" x2="27685.1" y2="20049.6" gradientUnits="userSpaceOnUse">
<stop offset="0.01"/>
<stop offset="0.08" stop-opacity="0.69"/>
<stop offset="0.21" stop-opacity="0.32"/>
<stop offset="1" stop-opacity="0"/>
</linearGradient>
<linearGradient id="paint7_linear" x1="26491.7" y1="904.952" x2="26491" y2="1174.14" gradientUnits="userSpaceOnUse">
<stop offset="0.01"/>
<stop offset="0.08" stop-opacity="0.69"/>
<stop offset="0.21" stop-opacity="0.32"/>
<stop offset="1" stop-opacity="0"/>
</linearGradient>
<linearGradient id="paint8_linear" x1="785.214" y1="227.76" x2="595.442" y2="103.39" gradientUnits="userSpaceOnUse">
<stop offset="0.01"/>
<stop offset="0.13" stop-opacity="0.69"/>
<stop offset="0.25" stop-opacity="0.32"/>
<stop offset="1" stop-opacity="0"/>
</linearGradient>
<linearGradient id="paint9_linear" x1="11392.6" y1="859.816" x2="11392.6" y2="986.748" gradientUnits="userSpaceOnUse">
<stop offset="0.01"/>
<stop offset="0.13" stop-opacity="0.69"/>
<stop offset="0.25" stop-opacity="0.32"/>
<stop offset="1" stop-opacity="0"/>
</linearGradient>
<linearGradient id="paint10_linear" x1="10255.9" y1="824.217" x2="10254.4" y2="939.989" gradientUnits="userSpaceOnUse">
<stop offset="0.01"/>
<stop offset="0.13" stop-opacity="0.69"/>
<stop offset="0.25" stop-opacity="0.32"/>
<stop offset="1" stop-opacity="0"/>
</linearGradient>
<linearGradient id="paint11_linear" x1="8981.8" y1="776.193" x2="8981.1" y2="856.576" gradientUnits="userSpaceOnUse">
<stop offset="0.01"/>
<stop offset="0.13" stop-opacity="0.69"/>
<stop offset="0.25" stop-opacity="0.32"/>
<stop offset="1" stop-opacity="0"/>
</linearGradient>
<clipPath id="clip0">
<rect width="937" height="706" fill="white"/>
</clipPath>
</defs>
</svg>
