<svg width="512" height="512" viewBox="0 0 512 512" fill="none" xmlns="http://www.w3.org/2000/svg">
<path d="M502 332.929H500.532V266.814C500.547 265.386 500.188 263.877 499.696 262.806L459.33 165.751C457.779 162.022 454.136 159.591 450.097 159.591H383.123V102.656C383.123 84.879 368.684 70.416 350.936 70.416H311.046L311.584 90.416H350.936C357.656 90.416 363.123 95.907 363.123 102.656V332.927H31.468V102.657C31.468 95.908 36.935 90.417 43.655 90.417H77.034L77.572 70.417H43.655C25.907 70.417 11.468 84.88 11.468 102.657V332.928H10C4.477 332.928 0 337.405 0 342.928V411.56C0 417.083 4.477 421.56 10 421.56H63.074C62.076 425.79 61.547 430.202 61.547 434.735C61.547 466.148 86.924 491.704 118.118 491.704C149.311 491.704 174.688 466.148 174.688 434.735C174.688 430.202 174.159 425.79 173.161 421.56H351.024C350.026 425.79 349.497 430.202 349.497 434.735C349.497 466.148 374.874 491.704 406.068 491.704C437.261 491.704 462.639 466.148 462.639 434.735C462.639 430.202 462.11 425.79 461.112 421.56H502C507.523 421.56 512 417.083 512 411.56V342.928C512 337.406 507.523 332.929 502 332.929V332.929ZM383.125 179.592H443.426L475.543 256.814H383.125V179.592ZM383.125 276.814H480.533V332.923H383.125V276.814ZM118.118 471.704C97.953 471.704 81.547 455.12 81.547 434.735C81.547 414.35 97.953 397.766 118.118 397.766C138.283 397.766 154.688 414.35 154.688 434.735C154.689 455.12 138.283 471.704 118.118 471.704ZM406.068 471.704C385.903 471.704 369.497 455.12 369.497 434.735C369.497 414.35 385.903 397.766 406.068 397.766C426.233 397.766 442.639 414.35 442.639 434.735C442.639 455.12 426.233 471.704 406.068 471.704ZM492 401.56H452.756C452.519 401.56 452.284 401.569 452.051 401.585C441.776 387.172 424.992 377.766 406.068 377.766C387.155 377.766 370.38 387.161 360.103 401.56H164.813C164.573 401.56 164.336 401.569 164.1 401.586C153.825 387.173 137.041 377.767 118.118 377.767C99.205 377.767 82.43 387.162 72.153 401.561H20V352.929H492V401.56Z" fill="#020288"/>
<path d="M320.553 52.118C321.373 42.848 320.762 34.938 314.941 28.839C293.854 6.74998 244.023 32.242 219.381 51.757C215.606 49.087 211.212 46.696 206.45 45.681C202.614 44.488 198.536 43.845 194.307 43.845C190.218 43.845 186.269 44.447 182.544 45.566C177.636 46.454 173.108 48.727 169.234 51.466C144.593 31.952 94.7633 7.22398 73.6763 29.314C67.8543 35.413 67.2433 42.847 68.0643 52.118L66.3203 117.01C67.8763 165.412 123.488 149.763 158.848 129.691V192.195L194.309 172.344L229.77 192.195V129.69C265.13 149.762 320.742 165.411 322.298 117.009L320.553 52.118Z" fill="#E2C4FF"/>
</svg>
