<svg width="512" height="512" viewBox="0 0 512 512" fill="none" xmlns="http://www.w3.org/2000/svg">
<path d="M262.049 86.9819H250.171C244.648 86.9819 240.171 91.4589 240.171 96.9819C240.171 102.505 244.648 106.982 250.171 106.982H262.049C267.572 106.982 272.049 102.505 272.049 96.9819C272.049 91.4589 267.572 86.9819 262.049 86.9819Z" fill="#020288"/>
<path d="M316.989 86.9819H305.111C299.588 86.9819 295.111 91.4589 295.111 96.9819C295.111 102.505 299.588 106.982 305.111 106.982H316.989C322.512 106.982 326.989 102.505 326.989 96.9819C326.989 91.4589 322.512 86.9819 316.989 86.9819Z" fill="#020288"/>
<path d="M371.929 86.9819H360.051C354.528 86.9819 350.051 91.4589 350.051 96.9819C350.051 102.505 354.528 106.982 360.051 106.982H371.929C377.452 106.982 381.929 102.505 381.929 96.9819C381.929 91.4589 377.452 86.9819 371.929 86.9819Z" fill="#020288"/>
<path d="M149.901 86.9819H64.1738C58.6508 86.9819 54.1738 91.4589 54.1738 96.9819C54.1738 102.505 58.6508 106.982 64.1738 106.982H149.901C155.424 106.982 159.901 102.505 159.901 96.9819C159.901 91.4589 155.424 86.9819 149.901 86.9819Z" fill="#020288"/>
<path d="M143.834 194.115C120.787 194.115 102.037 212.916 102.037 236.027V239.177H75.373C69.85 239.177 65.373 243.654 65.373 249.177V362.751C65.373 381.54 80.659 396.825 99.447 396.825H188.449C207.238 396.825 222.523 381.539 222.523 362.751V249.177C222.523 243.654 218.046 239.177 212.523 239.177H185.63V236.027C185.631 212.917 166.881 194.115 143.834 194.115V194.115ZM122.038 236.027C122.038 223.945 131.816 214.115 143.835 214.115C155.854 214.115 165.631 223.945 165.631 236.027V239.177H122.038V236.027ZM202.524 259.177V362.751C202.524 370.512 196.21 376.825 188.45 376.825H99.447C91.686 376.825 85.373 370.511 85.373 362.751V259.177H102.038V280.256C102.038 285.779 106.515 290.256 112.038 290.256C117.561 290.256 122.038 285.779 122.038 280.256V259.177H165.631V280.256C165.631 285.779 170.108 290.256 175.631 290.256C181.154 290.256 185.631 285.779 185.631 280.256V259.177H202.524Z" fill="#020288"/>
<path d="M373.899 440.341H33.614C26.107 440.341 20 434.264 20 426.795V153.672H405.047V248.903H425.047V73.839C425.047 55.341 409.968 40.293 391.433 40.293H33.614C15.079 40.292 0 55.341 0 73.839V426.795C0 445.293 15.079 460.341 33.614 460.341H405.75C395.72 455.469 384.384 448.891 373.899 440.341V440.341ZM20 73.839C20 66.369 26.107 60.293 33.614 60.293H391.433C398.94 60.293 405.047 66.37 405.047 73.839V133.672H20V73.839Z" fill="#020288"/>
<path d="M486.031 274.361C461.141 274.361 439.673 259.859 429.684 238.903H400.411C390.423 259.859 368.954 274.361 344.064 274.361C334.795 274.361 326.001 272.348 318.095 268.743V371.198C318.095 446.135 415.047 471.708 415.047 471.708C415.047 471.708 512 446.135 512 371.198V268.743C504.094 272.348 495.299 274.361 486.031 274.361Z" fill="#E2C4FF"/>
<path d="M412.066 384.686C409.431 384.686 406.896 383.646 405.019 381.78L388.26 365.131C384.342 361.238 384.321 354.907 388.214 350.989C392.106 347.071 398.438 347.05 402.356 350.943L411.421 359.949L437.943 328.535C441.506 324.314 447.815 323.781 452.035 327.345C456.255 330.908 456.788 337.217 453.225 341.437L419.707 381.138C417.905 383.272 415.293 384.555 412.503 384.678C412.358 384.683 412.212 384.686 412.066 384.686V384.686Z" fill="#020288"/>
</svg>
