<svg width="40" height="40" viewBox="0 0 40 40" fill="none" xmlns="http://www.w3.org/2000/svg">
<g clip-path="url(#clip0)">
<path d="M39.1671 10.845C38.9406 10.037 38.4994 9.30556 37.8904 8.72832C37.2642 8.13332 36.4968 7.70771 35.6604 7.49165C32.5304 6.66665 19.9904 6.66665 19.9904 6.66665C14.7626 6.60717 9.53613 6.86878 4.34042 7.44998C3.50407 7.68201 2.73802 8.11713 2.11042 8.71665C1.49375 9.30998 1.04709 10.0417 0.813752 10.8433C0.25324 13.8629 -0.019095 16.9289 0.000418287 20C-0.0195817 23.0683 0.252085 26.1333 0.813752 29.1567C1.04209 29.955 1.48708 30.6833 2.10542 31.2717C2.72375 31.86 3.49375 32.285 4.34042 32.51C7.51209 33.3333 19.9904 33.3333 19.9904 33.3333C25.2249 33.3929 30.458 33.1313 35.6604 32.55C36.4968 32.3339 37.2642 31.9083 37.8904 31.3133C38.5071 30.725 38.9454 29.9933 39.1654 29.1966C39.7406 26.1782 40.0202 23.111 40.0004 20.0383C40.0437 16.9527 39.7644 13.8709 39.1671 10.8433V10.845ZM16.0038 25.7066V14.295L26.4371 20.0017L16.0038 25.7066Z" fill="white"/>
</g>
<defs>
<clipPath id="clip0">
<rect width="40" height="40" fill="white"/>
</clipPath>
</defs>
</svg>
