<svg width="40" height="40" viewBox="0 0 40 40" fill="none" xmlns="http://www.w3.org/2000/svg">
<g clip-path="url(#clip0)">
<path d="M40 20.124C40 9.00902 31.045 -0.000976562 20 -0.000976562C8.95 0.00152344 -0.00500488 9.00902 -0.00500488 20.1265C-0.00500488 30.169 7.31 38.494 16.87 40.004V25.9415H11.795V20.1265H16.875V15.689C16.875 10.6465 19.8625 7.86152 24.43 7.86152C26.62 7.86152 28.9075 8.25402 28.9075 8.25402V13.204H26.385C23.9025 13.204 23.1275 14.7565 23.1275 16.349V20.124H28.6725L27.7875 25.939H23.125V40.0015C32.685 38.4915 40 30.1665 40 20.124Z" fill="white"/>
</g>
<defs>
<clipPath id="clip0">
<rect width="40" height="40" fill="white"/>
</clipPath>
</defs>
</svg>
