<svg width="52" height="52" viewBox="0 0 52 52" fill="none" xmlns="http://www.w3.org/2000/svg">
<path d="M47.2454 21.7566H45.5002V21.6667H26.0002V30.3334H38.2451C36.4587 35.3785 31.6584 39 26.0002 39C18.8209 39 13.0002 33.1793 13.0002 26C13.0002 18.8208 18.8209 13 26.0002 13C29.3141 13 32.329 14.2502 34.6246 16.2923L40.753 10.1639C36.8833 6.55746 31.7072 4.33337 26.0002 4.33337C14.0347 4.33337 4.3335 14.0346 4.3335 26C4.3335 37.9655 14.0347 47.6667 26.0002 47.6667C37.9656 47.6667 47.6668 37.9655 47.6668 26C47.6668 24.5473 47.5173 23.1292 47.2454 21.7566Z" fill="#FFC107"/>
<path d="M6.83154 15.9153L13.9501 21.1359C15.8763 16.367 20.5411 13 26 13C29.314 13 32.3289 14.2502 34.6245 16.2923L40.7529 10.1639C36.8832 6.55746 31.707 4.33337 26 4.33337C17.6779 4.33337 10.4607 9.03179 6.83154 15.9153Z" fill="#FF3D00"/>
<path d="M26.0002 47.6667C31.5967 47.6667 36.6818 45.5249 40.5266 42.042L33.8208 36.3675C31.5723 38.0774 28.8249 39.0023 26.0002 39C20.3647 39 15.5796 35.4066 13.7769 30.3918L6.71143 35.8356C10.2973 42.8523 17.5794 47.6667 26.0002 47.6667Z" fill="#4CAF50"/>
<path d="M47.2453 21.7565H45.5V21.6666H26V30.3333H38.2449C37.3904 32.7344 35.8511 34.8326 33.8173 36.3685L33.8206 36.3664L40.5264 42.0409C40.0519 42.472 47.6667 36.8333 47.6667 26C47.6667 24.5472 47.5172 23.1291 47.2453 21.7565Z" fill="#1976D2"/>
</svg>
