<svg width="52" height="52" viewBox="0 0 52 52" fill="none" xmlns="http://www.w3.org/2000/svg">
<g clip-path="url(#clip0)">
<path d="M49.13 52.0002C50.7148 52.0002 52 50.7152 52 49.1302V2.86995C52 1.28477 50.7148 0 49.13 0H2.86995C1.28456 0 0 1.28477 0 2.86995V49.1302C0 50.7152 1.28456 52.0002 2.86995 52.0002H49.13" fill="#395185"/>
<path d="M35.8788 52V31.8628H42.6382L43.6501 24.0151H35.8788V19.0044C35.8788 16.7322 36.5099 15.1838 39.7682 15.1838L43.924 15.182V8.163C43.2049 8.06732 40.7381 7.85364 37.8684 7.85364C31.8766 7.85364 27.7747 11.5109 27.7747 18.2274V24.0151H20.998V31.8628H27.7747V52H35.8788" fill="white"/>
</g>
<defs>
<clipPath id="clip0">
<rect width="52" height="52" fill="white"/>
</clipPath>
</defs>
</svg>
