<svg width="231" height="231" viewBox="0 0 231 231" fill="none" xmlns="http://www.w3.org/2000/svg">
<circle cx="115.5" cy="115.5" r="115.5" fill="#46D6EC"/>
<circle cx="115.5" cy="115.5" r="115.5" fill="url(#paint0_linear)"/>
<g clip-path="url(#clip0)">
<rect x="58.1782" y="66.892" width="95.2926" height="95.2926" fill="white"/>
<path d="M117.242 74.8207H114.404C113.085 74.8207 112.015 75.8903 112.015 77.2099C112.015 78.5295 113.085 79.5992 114.404 79.5992H117.242C118.562 79.5992 119.632 78.5295 119.632 77.2099C119.632 75.8903 118.562 74.8207 117.242 74.8207Z" fill="#218EC6"/>
<path d="M130.369 74.8207H127.531C126.211 74.8207 125.142 75.8903 125.142 77.2099C125.142 78.5295 126.211 79.5992 127.531 79.5992H130.369C131.688 79.5992 132.758 78.5295 132.758 77.2099C132.758 75.8903 131.688 74.8207 130.369 74.8207Z" fill="#218EC6"/>
<path d="M143.495 74.8207H140.657C139.338 74.8207 138.268 75.8903 138.268 77.2099C138.268 78.5295 139.338 79.5992 140.657 79.5992H143.495C144.815 79.5992 145.884 78.5295 145.884 77.2099C145.884 75.8903 144.815 74.8207 143.495 74.8207Z" fill="#218EC6"/>
<path d="M90.4472 74.8207H69.9649C68.6453 74.8207 67.5757 75.8903 67.5757 77.2099C67.5757 78.5295 68.6453 79.5992 69.9649 79.5992H90.4472C91.7667 79.5992 92.8364 78.5295 92.8364 77.2099C92.8364 75.8903 91.7667 74.8207 90.4472 74.8207Z" fill="#218EC6"/>
<path d="M88.9977 100.417C83.4912 100.417 79.0114 104.909 79.0114 110.431V111.184H72.6407C71.3211 111.184 70.2515 112.253 70.2515 113.573V140.708C70.2515 145.198 73.9037 148.85 78.3926 148.85H99.6573C104.146 148.85 107.798 145.197 107.798 140.708V113.573C107.798 112.253 106.729 111.184 105.409 111.184H98.9837V110.431C98.984 104.909 94.5042 100.417 88.9977 100.417ZM83.7901 110.431C83.7901 107.544 86.1263 105.196 88.9979 105.196C91.8695 105.196 94.2055 107.544 94.2055 110.431V111.184H83.7901V110.431ZM103.02 115.962V140.708C103.02 142.563 101.512 144.071 99.6575 144.071H78.3926C76.5383 144.071 75.0299 142.562 75.0299 140.708V115.962H79.0116V120.998C79.0116 122.318 80.0813 123.388 81.4009 123.388C82.7204 123.388 83.7901 122.318 83.7901 120.998V115.962H94.2055V120.998C94.2055 122.318 95.2752 123.388 96.5947 123.388C97.9143 123.388 98.984 122.318 98.984 120.998V115.962H103.02Z" fill="#218EC6"/>
<path d="M143.966 159.247H62.6635C60.8699 159.247 59.4108 157.795 59.4108 156.01V90.7545H151.408V113.507H156.186V71.6805C156.186 67.2609 152.583 63.6655 148.155 63.6655H62.6635C58.2351 63.6653 54.6323 67.2609 54.6323 71.6805V156.01C54.6323 160.43 58.2351 164.025 62.6635 164.025H151.576C149.179 162.861 146.471 161.289 143.966 159.247ZM59.4108 71.6805C59.4108 69.8957 60.8699 68.444 62.6635 68.444H148.155C149.949 68.444 151.408 69.8959 151.408 71.6805V85.976H59.4108V71.6805Z" fill="#218EC6"/>
<path d="M154.185 164.538C154.039 164.584 153.909 164.625 153.797 164.659C153.685 164.625 153.555 164.584 153.409 164.538C152.812 164.347 151.949 164.053 150.908 163.645C148.822 162.826 146.056 161.56 143.305 159.771C137.758 156.164 132.633 150.69 132.633 142.727V121.064C133.978 121.408 135.387 121.59 136.837 121.59C143.119 121.59 148.598 118.178 151.507 113.118H156.087C158.996 118.178 164.475 121.59 170.757 121.59C172.207 121.59 173.616 121.408 174.961 121.064V142.727C174.961 150.69 169.837 156.164 164.289 159.771C161.538 161.56 158.772 162.826 156.686 163.645C155.645 164.053 154.782 164.347 154.185 164.538Z" fill="#7BC79C" stroke="white" stroke-width="4"/>
<path d="M153.085 145.949C152.455 145.949 151.849 145.701 151.401 145.255L147.397 141.277C146.461 140.347 146.456 138.834 147.386 137.898C148.316 136.962 149.829 136.957 150.765 137.887L152.93 140.039L159.267 132.533C160.118 131.525 161.626 131.398 162.634 132.249C163.642 133.1 163.77 134.608 162.918 135.616L154.91 145.101C154.48 145.611 153.856 145.918 153.189 145.947C153.154 145.948 153.119 145.949 153.085 145.949Z" fill="white"/>
</g>
<defs>
<linearGradient id="paint0_linear" x1="109.859" y1="1.81256e-07" x2="115.797" y2="467.938" gradientUnits="userSpaceOnUse">
<stop stop-color="white"/>
<stop offset="1" stop-color="white" stop-opacity="0"/>
</linearGradient>
<clipPath id="clip0">
<rect width="122.329" height="122.329" fill="white" transform="translate(54.6323 54.0386)"/>
</clipPath>
</defs>
</svg>
